<?xml version="1.0" encoding="UTF-8"?><svg id="Layer_1" xmlns="http://www.w3.org/2000/svg" viewBox="0 0 489.91 71.52"><defs><style>.cls-1{fill:#94c5cc;}.cls-2{fill:#231f20;}.cls-3{fill:#b5d2e6;}</style></defs><g><polygon class="cls-3" points="49.93 0 37.75 69.05 0 69.05 12.18 0 49.93 0"/><polygon class="cls-1" points="87.68 0 75.5 69.05 37.75 69.05 49.93 0 87.68 0"/></g><path class="cls-2" d="M107.66,70.34c-5.03,0-9.44-1.58-13.22-4.73h-.2v3.45h-19.78L74.41,0h19.73V23.28c3.78-3.16,7.76-4.74,11.94-4.74h2.56c7.79,0,14.11,3.68,18.94,11.05,2.24,3.91,3.35,8.32,3.35,13.22v.59c0,12.13-4.6,20.52-13.81,25.16-3.16,1.18-6.31,1.78-9.47,1.78Zm2.37-25.55v-1.58c0-4.83-1.32-8.12-3.95-9.87-1.41-.39-2.6-.59-3.55-.59h-1.18c-4.21,.43-6.31,1.48-6.31,3.16-.79,.69-1.25,3.52-1.38,8.48,0,6.74,2.1,10.52,6.31,11.34,.62,0,1.28,.07,1.97,.2,3.55,0,5.92-1.38,7.1-4.14,.66-1.68,.99-4.01,.99-7Z"/><path class="cls-2" d="M133.6,13.81V0h19.73V13.81h-19.73Zm19.73,4.93v50.31h-19.73V18.74h19.73Z"/><path class="cls-2" d="M177,35.27l10.85-16.52h21.21l-16.52,25.16,16.52,25.16h-21.21l-10.85-16.52v16.52h-19.73V0h19.73V35.27Z"/><path class="cls-2" d="M230.61,17.07c13.84,0,22.66,7.17,26.44,21.51,.66,2.73,.99,6.1,.99,10.11v.94h-36.3v.2c1.08,2.76,2.66,4.65,4.73,5.67,1.94,1.02,3.78,1.53,5.52,1.53h.69c2.3,0,4.5-1.31,6.61-3.95h17.76v.2c-6.54,11.51-14.83,17.26-24.86,17.26-9.34,0-16.51-2.77-21.51-8.31-5-5.54-7.5-11.58-7.5-18.13,0-7.6,2.63-13.97,7.89-19.11,5.26-5.15,11.77-7.78,19.53-7.92Zm-9.08,20.91h18.15v-.15c0-1.38-.99-2.88-2.96-4.49-1.81-.92-3.65-1.38-5.52-1.38-5.36,0-8.58,2.01-9.67,6.02Z"/><path class="cls-2" d="M294.54,17.95l5.72,1.18v18.15h-2.96c-7.63,0-12.63,2.1-15,6.31-1.45,2.07-2.17,5.75-2.17,11.05v14.4h-19.14V18.74h18.74v10.26l2.96-4.93c3.16-4.08,7.1-6.12,11.84-6.12Z"/><path class="cls-2" d="M304.39,13.81V0h19.73V13.81h-19.73Zm19.73,4.93v50.31h-19.73V18.74h19.73Z"/><path class="cls-2" d="M350.86,70.34c-3.16,0-6.31-.59-9.47-1.78-9.21-4.64-13.81-13.02-13.81-25.16v-.59c0-4.9,1.12-9.31,3.35-13.22,4.83-7.37,11.15-11.05,18.94-11.05h2.56c4.18,0,8.15,1.58,11.94,4.74V0h19.73l-.05,69.05h-19.78v-3.45h-.2c-3.78,3.16-8.19,4.73-13.22,4.73Zm-2.37-25.55c0,2.99,.33,5.33,.99,7,1.18,2.76,3.55,4.14,7.1,4.14,.69-.13,1.35-.2,1.97-.2,4.21-.82,6.31-4.6,6.31-11.34-.13-4.96-.59-7.79-1.38-8.48,0-1.68-2.1-2.73-6.31-3.16h-1.18c-.95,0-2.14,.2-3.55,.59-2.63,1.74-3.95,5.03-3.95,9.87v1.58Z"/><path class="cls-2" d="M414.84,17.07c13.84,0,22.66,7.17,26.44,21.51,.66,2.73,.99,6.1,.99,10.11v.94h-36.3v.2c1.09,2.76,2.66,4.65,4.74,5.67,1.94,1.02,3.78,1.53,5.52,1.53h.69c2.3,0,4.5-1.31,6.61-3.95h17.76v.2c-6.54,11.51-14.83,17.26-24.86,17.26-9.34,0-16.51-2.77-21.5-8.31-5-5.54-7.5-11.58-7.5-18.13,0-7.6,2.63-13.97,7.89-19.11,5.26-5.15,11.77-7.78,19.53-7.92Zm-9.08,20.91h18.15v-.15c0-1.38-.99-2.88-2.96-4.49-1.81-.92-3.65-1.38-5.52-1.38-5.36,0-8.58,2.01-9.67,6.02Z"/><path class="cls-2" d="M464.7,16.47h2.32c7.1,0,14.32,1.97,21.65,5.92,0,.33-2.15,4.27-6.46,11.84l-6.76-1.87c-3.22-.92-5.94-1.38-8.14-1.38h-1.23c-2.01,0-3.19,.86-3.55,2.56,0,1.09,2.63,2.2,7.89,3.35,7.5,2.04,12.46,4.18,14.9,6.41,3.06,2.66,4.59,6.21,4.59,10.65,0,9.17-5.41,14.9-16.23,17.17-2.4,.26-4.34,.39-5.82,.39h-1.48c-9.31,0-17.84-2.56-25.6-7.69v-.2c4.67-7.33,7.1-11.02,7.3-11.05h.2c5.56,2.96,11.15,4.44,16.77,4.44h1.23c2.93,0,4.39-.66,4.39-1.97,0-1.84-3.47-3.42-10.41-4.73-7.63-2.04-12.59-4.9-14.9-8.58-1.38-2.43-2.07-5-2.07-7.69,0-8.91,5.41-14.63,16.23-17.17,2.07-.26,3.8-.39,5.18-.39Z"/></svg>